<svg width="24" height="24" viewBox="0 0 24 24" fill="none" xmlns="http://www.w3.org/2000/svg">
<path fill-rule="evenodd" clip-rule="evenodd" d="M17.9496 9.97479C17.9496 14.3791 14.3791 17.9496 9.97479 17.9496C5.57043 17.9496 2 14.3791 2 9.97479C2 5.57043 5.57043 2 9.97479 2C14.3791 2 17.9496 5.57043 17.9496 9.97479ZM16.2856 17.6998C14.5664 19.106 12.3691 19.9496 9.97479 19.9496C4.46587 19.9496 0 15.4837 0 9.97479C0 4.46587 4.46587 0 9.97479 0C15.4837 0 19.9496 4.46587 19.9496 9.97479C19.9496 12.3691 19.106 14.5664 17.6998 16.2856L23.6491 22.2349L22.2349 23.6491L16.2856 17.6998Z" fill="black"/>
</svg>
